<?xml version="1.0" standalone="no"?>
<!DOCTYPE svg PUBLIC "-//W3C//DTD SVG 20010904//EN"
 "http://www.w3.org/TR/2001/REC-SVG-20010904/DTD/svg10.dtd">
<svg version="1.0" xmlns="http://www.w3.org/2000/svg"
 width="587.000000pt" height="587.000000pt" viewBox="0 0 587.000000 587.000000"
 preserveAspectRatio="xMidYMid meet">
<metadata>
Created by potrace 1.11, written by Peter Selinger 2001-2013
</metadata>
<g transform="translate(0.000000,587.000000) scale(0.100000,-0.100000)"
fill="#000000" stroke="none">
<path d="M0 2940 l0 -2930 2935 0 2935 0 0 2930 0 2930 -2935 0 -2935 0 0
-2930z m1681 268 c39 -11 46 -22 30 -46 -7 -11 -16 -11 -55 2 -94 32 -180 15
-242 -48 -50 -50 -68 -102 -67 -203 2 -167 93 -254 252 -240 36 3 74 9 84 13
15 6 18 3 15 -17 -4 -29 -30 -37 -128 -38 -99 -1 -143 12 -196 61 -58 53 -84
123 -84 226 0 95 11 137 53 198 48 72 116 104 219 104 45 0 98 -5 119 -12z
m1344 -28 c0 -30 -3 -35 -27 -38 -19 -2 -28 2 -33 17 -11 36 3 63 33 59 24 -3
27 -8 27 -38z m750 26 c63 -27 94 -114 62 -176 -7 -13 -31 -38 -54 -56 l-42
-32 28 -12 c16 -6 43 -27 61 -45 27 -28 34 -44 38 -87 3 -44 0 -59 -20 -87
-40 -60 -71 -75 -153 -79 -129 -7 -197 44 -198 147 -1 61 25 106 79 141 39 24
43 29 25 35 -31 9 -79 71 -87 109 -8 46 20 103 65 133 41 27 141 32 196 9z
m-2560 -63 c-187 -501 -188 -503 -217 -503 l-27 0 23 63 c13 34 60 162 106
285 81 219 83 222 111 222 l29 0 -25 -67z m2791 -3 c12 -36 49 -143 82 -237
l60 -173 12 38 c6 20 43 128 83 240 l72 202 32 0 c18 0 33 -4 33 -8 0 -7 -134
-384 -180 -504 -20 -54 -24 -58 -53 -58 -32 0 -32 1 -76 123 -54 151 -147 406
-156 430 -7 16 -3 18 30 15 37 -3 39 -5 61 -68z m710 59 c84 -21 133 -116 104
-203 -11 -33 -70 -96 -90 -96 -19 0 -10 -21 60 -134 39 -62 70 -116 70 -120 0
-3 -15 -6 -34 -6 -32 0 -36 4 -102 115 l-69 115 -62 0 -63 0 0 -115 0 -115
-30 0 -30 0 0 285 0 285 101 0 c55 0 120 -5 145 -11z m-1956 -89 l0 -50 60 0
c53 0 60 -2 60 -20 0 -18 -7 -20 -60 -20 l-60 0 0 -153 c0 -185 5 -197 81
-197 42 0 49 -3 49 -20 0 -18 -7 -20 -60 -20 -114 0 -130 29 -130 248 l0 142
-31 0 c-24 0 -30 4 -27 17 2 10 12 19 23 21 32 6 43 20 50 63 5 29 11 39 26
39 16 0 19 -7 19 -50z m-1830 -10 c0 -16 -33 -36 -155 -97 l-155 -78 152 -66
c124 -53 154 -70 156 -87 2 -12 0 -22 -5 -22 -4 0 -89 36 -188 79 -116 50
-181 84 -183 94 -3 12 42 39 175 106 98 50 184 90 191 90 6 1 12 -8 12 -19z
m4191 -70 c135 -68 180 -95 177 -107 -2 -11 -66 -44 -182 -95 -99 -43 -183
-78 -188 -78 -5 0 -8 9 -6 21 2 16 36 35 160 88 l158 67 -160 76 c-131 63
-160 80 -160 97 0 12 5 21 10 21 6 0 91 -41 191 -90z m-3087 30 c14 -5 35 -24
46 -42 18 -30 20 -51 20 -205 0 -163 -1 -173 -19 -173 -12 0 -21 10 -25 26
l-7 27 -30 -29 c-24 -23 -40 -29 -93 -32 -107 -7 -164 43 -153 135 9 81 80
123 209 123 l68 0 0 35 c0 42 -22 90 -45 99 -30 11 -94 6 -135 -10 -45 -18
-47 -18 -52 10 -2 14 6 22 32 32 42 15 149 18 184 4z m476 -8 c51 -28 82 -90
88 -176 5 -84 -9 -144 -44 -186 -38 -44 -75 -60 -142 -60 -46 0 -67 5 -96 25
l-36 24 0 -114 0 -115 -25 0 -25 0 0 305 0 305 25 0 c19 0 25 -5 25 -22 l0
-21 23 20 c30 28 42 31 112 32 41 1 72 -5 95 -17z m510 -202 l0 -210 -25 0
-25 0 0 210 0 210 25 0 25 0 0 -210z m173 63 c31 -82 61 -161 67 -178 11 -29
14 -23 78 145 64 166 69 175 95 178 35 4 40 24 -57 -224 -71 -181 -75 -189
-103 -192 -29 -3 -29 -2 -92 160 -35 90 -72 184 -82 211 l-19 47 29 0 c27 0
30 -5 84 -147z"/>
<path d="M3624 3170 c-56 -22 -71 -99 -29 -148 49 -59 107 -65 163 -17 55 46
50 130 -9 160 -31 16 -92 19 -125 5z"/>
<path d="M3617 2895 c-72 -50 -89 -130 -38 -187 28 -31 33 -33 100 -33 66 0
73 2 102 32 27 26 32 39 32 77 0 53 -24 85 -85 117 -49 25 -66 24 -111 -6z"/>
<path d="M4530 3039 l0 -111 86 3 c82 4 87 5 115 37 22 24 29 42 29 73 0 81
-39 109 -155 109 l-75 0 0 -111z"/>
<path d="M1900 2838 c-53 -15 -70 -35 -70 -84 0 -64 41 -94 113 -80 67 12 107
66 107 141 l0 35 -57 -1 c-32 0 -74 -5 -93 -11z"/>
<path d="M2351 3017 c-42 -21 -63 -60 -68 -130 -7 -82 11 -158 44 -188 20 -20
35 -24 83 -24 94 0 130 49 130 175 0 81 -16 128 -55 158 -31 25 -95 29 -134 9z"/>
</g>
</svg>
